<svg width="486" height="21" viewBox="0 0 486 21" fill="none" xmlns="http://www.w3.org/2000/svg">
<path opacity="0.5" d="M1.806 1.09L7.14 14.173L12.453 1.09H13.986L7.812 16H6.468L0.273 1.09H1.806ZM19.1379 16.21C18.0879 16.21 17.1499 15.951 16.3239 15.433C15.4979 14.915 14.8469 14.222 14.3709 13.354C13.8949 12.486 13.6569 11.534 13.6569 10.498C13.6569 9.476 13.8879 8.538 14.3499 7.684C14.8259 6.83 15.4769 6.151 16.3029 5.647C17.1289 5.129 18.0669 4.87 19.1169 4.87C20.1949 4.87 21.1399 5.129 21.9519 5.647C22.7639 6.165 23.3939 6.851 23.8419 7.705C24.3039 8.545 24.5349 9.469 24.5349 10.477C24.5349 10.701 24.5279 10.89 24.5139 11.044H15.1479C15.2179 11.828 15.4419 12.528 15.8199 13.144C16.1979 13.746 16.6809 14.229 17.2689 14.593C17.8569 14.943 18.5009 15.118 19.2009 15.118C19.9149 15.118 20.5869 14.936 21.2169 14.572C21.8469 14.208 22.2949 13.732 22.5609 13.144L23.7999 13.48C23.5759 14.012 23.2259 14.488 22.7499 14.908C22.2879 15.314 21.7489 15.636 21.1329 15.874C20.5169 16.098 19.8519 16.21 19.1379 16.21ZM15.1059 10.015H23.1909C23.1349 9.231 22.9179 8.538 22.5399 7.936C22.1619 7.32 21.6789 6.844 21.0909 6.508C20.5029 6.158 19.8519 5.983 19.1379 5.983C18.4239 5.983 17.7729 6.158 17.1849 6.508C16.5969 6.844 16.1139 7.32 15.7359 7.936C15.3719 8.538 15.1619 9.231 15.1059 10.015ZM32.1981 6.319C31.2461 6.347 30.4061 6.613 29.6781 7.117C28.9641 7.621 28.4601 8.314 28.1661 9.196V16H26.7381V5.059H28.0821V7.684C28.4601 6.914 28.9571 6.291 29.5731 5.815C30.2031 5.339 30.8681 5.073 31.5681 5.017C31.7081 5.003 31.8271 4.996 31.9251 4.996C32.0231 4.996 32.1141 5.003 32.1981 5.017V6.319ZM34.1004 2.77V0.67H35.5284V2.77H34.1004ZM34.1004 16V5.059H35.5284V16H34.1004ZM39.1986 16V6.193H37.6866V5.059H39.1986V4.765C39.1986 3.421 39.4856 2.371 40.0596 1.615C40.6476 0.844999 41.4316 0.46 42.4116 0.46C42.8316 0.46 43.2446 0.523 43.6506 0.649C44.0706 0.774999 44.4276 0.942999 44.7216 1.153L44.2806 2.182C43.8606 1.86 43.3286 1.699 42.6846 1.699C42.0266 1.699 41.5156 1.958 41.1516 2.476C40.8016 2.994 40.6266 3.743 40.6266 4.723V5.059H43.6506V6.193H40.6266V16H39.1986ZM46.2353 19.36C46.4313 19.374 46.6203 19.381 46.8023 19.381C46.9843 19.395 47.1173 19.388 47.2013 19.36C47.3693 19.346 47.5233 19.248 47.6633 19.066C47.8173 18.898 47.9993 18.576 48.2093 18.1C48.4333 17.638 48.7343 16.938 49.1123 16L44.3453 5.059H45.8573L49.8683 14.53L53.5643 5.059H54.9923L49.3223 19.171C49.1683 19.577 48.9093 19.927 48.5453 20.221C48.1813 20.515 47.6983 20.669 47.0963 20.683C46.9703 20.697 46.8373 20.697 46.6973 20.683C46.5573 20.683 46.4033 20.669 46.2353 20.641V19.36ZM66.5114 16.21C65.4474 16.21 64.5024 15.951 63.6764 15.433C62.8504 14.901 62.1994 14.208 61.7234 13.354C61.2474 12.486 61.0094 11.534 61.0094 10.498C61.0094 9.462 61.2404 8.524 61.7024 7.684C62.1644 6.83 62.8084 6.151 63.6344 5.647C64.4604 5.129 65.4124 4.87 66.4904 4.87C67.5124 4.87 68.4084 5.108 69.1784 5.584C69.9624 6.046 70.5504 6.676 70.9424 7.474L69.5564 7.915C69.2484 7.355 68.8144 6.921 68.2544 6.613C67.7084 6.291 67.0994 6.13 66.4274 6.13C65.6854 6.13 65.0134 6.319 64.4114 6.697C63.8234 7.075 63.3474 7.6 62.9834 8.272C62.6334 8.93 62.4584 9.672 62.4584 10.498C62.4584 11.324 62.6404 12.073 63.0044 12.745C63.3684 13.417 63.8514 13.956 64.4534 14.362C65.0554 14.754 65.7204 14.95 66.4484 14.95C66.9244 14.95 67.3864 14.866 67.8344 14.698C68.2824 14.53 68.6674 14.306 68.9894 14.026C69.3114 13.732 69.5284 13.417 69.6404 13.081L71.0474 13.501C70.8514 14.019 70.5294 14.488 70.0814 14.908C69.6334 15.314 69.1014 15.636 68.4854 15.874C67.8694 16.098 67.2114 16.21 66.5114 16.21ZM77.9133 16.21C76.8633 16.21 75.9253 15.951 75.0993 15.433C74.2733 14.915 73.6223 14.222 73.1463 13.354C72.6703 12.486 72.4323 11.534 72.4323 10.498C72.4323 9.476 72.6633 8.538 73.1253 7.684C73.6013 6.83 74.2523 6.151 75.0783 5.647C75.9043 5.129 76.8423 4.87 77.8923 4.87C78.9703 4.87 79.9153 5.129 80.7273 5.647C81.5393 6.165 82.1693 6.851 82.6173 7.705C83.0793 8.545 83.3103 9.469 83.3103 10.477C83.3103 10.701 83.3033 10.89 83.2893 11.044H73.9233C73.9933 11.828 74.2173 12.528 74.5953 13.144C74.9733 13.746 75.4563 14.229 76.0443 14.593C76.6323 14.943 77.2763 15.118 77.9763 15.118C78.6903 15.118 79.3623 14.936 79.9923 14.572C80.6223 14.208 81.0703 13.732 81.3363 13.144L82.5753 13.48C82.3513 14.012 82.0013 14.488 81.5253 14.908C81.0633 15.314 80.5243 15.636 79.9083 15.874C79.2923 16.098 78.6273 16.21 77.9133 16.21ZM73.8813 10.015H81.9663C81.9103 9.231 81.6933 8.538 81.3153 7.936C80.9373 7.32 80.4543 6.844 79.8663 6.508C79.2783 6.158 78.6273 5.983 77.9133 5.983C77.1993 5.983 76.5483 6.158 75.9603 6.508C75.3723 6.844 74.8893 7.32 74.5113 7.936C74.1473 8.538 73.9373 9.231 73.8813 10.015ZM90.9735 6.319C90.0215 6.347 89.1815 6.613 88.4535 7.117C87.7395 7.621 87.2355 8.314 86.9415 9.196V16H85.5135V5.059H86.8575V7.684C87.2355 6.914 87.7325 6.291 88.3485 5.815C88.9785 5.339 89.6435 5.073 90.3435 5.017C90.4835 5.003 90.6025 4.996 90.7005 4.996C90.7985 4.996 90.8895 5.003 90.9735 5.017V6.319ZM98.1258 15.475C97.9578 15.545 97.6498 15.671 97.2018 15.853C96.7538 16.035 96.2358 16.126 95.6478 16.126C95.0318 16.126 94.4928 15.951 94.0308 15.601C93.5688 15.251 93.3378 14.726 93.3378 14.026V6.193H91.8258V5.059H93.3378V1.363H94.7658V5.059H97.2858V6.193H94.7658V13.627C94.7938 14.033 94.9338 14.334 95.1858 14.53C95.4518 14.712 95.7528 14.803 96.0888 14.803C96.4808 14.803 96.8308 14.74 97.1388 14.614C97.4608 14.474 97.6638 14.376 97.7478 14.32L98.1258 15.475ZM99.91 2.77V0.67H101.338V2.77H99.91ZM99.91 16V5.059H101.338V16H99.91ZM105.008 6.193H103.496V5.059H105.008V4.765C105.008 4.079 105.141 3.407 105.407 2.749C105.687 2.091 106.107 1.545 106.667 1.111C107.241 0.677 107.976 0.46 108.872 0.46C109.642 0.46 110.3 0.579 110.846 0.816999C111.406 1.055 111.805 1.265 112.043 1.447L111.392 2.476C111.154 2.266 110.818 2.091 110.384 1.951C109.95 1.797 109.474 1.72 108.956 1.72C108.354 1.72 107.871 1.874 107.507 2.182C107.143 2.476 106.87 2.854 106.688 3.316C106.52 3.778 106.436 4.247 106.436 4.723V5.059H111.917V16H110.489V6.193H106.436V16H105.008V6.193ZM119.811 16.21C118.747 16.21 117.802 15.951 116.976 15.433C116.15 14.901 115.499 14.208 115.023 13.354C114.547 12.486 114.309 11.534 114.309 10.498C114.309 9.462 114.54 8.524 115.002 7.684C115.464 6.83 116.108 6.151 116.934 5.647C117.76 5.129 118.712 4.87 119.79 4.87C120.812 4.87 121.708 5.108 122.478 5.584C123.262 6.046 123.85 6.676 124.242 7.474L122.856 7.915C122.548 7.355 122.114 6.921 121.554 6.613C121.008 6.291 120.399 6.13 119.727 6.13C118.985 6.13 118.313 6.319 117.711 6.697C117.123 7.075 116.647 7.6 116.283 8.272C115.933 8.93 115.758 9.672 115.758 10.498C115.758 11.324 115.94 12.073 116.304 12.745C116.668 13.417 117.151 13.956 117.753 14.362C118.355 14.754 119.02 14.95 119.748 14.95C120.224 14.95 120.686 14.866 121.134 14.698C121.582 14.53 121.967 14.306 122.289 14.026C122.611 13.732 122.828 13.417 122.94 13.081L124.347 13.501C124.151 14.019 123.829 14.488 123.381 14.908C122.933 15.314 122.401 15.636 121.785 15.874C121.169 16.098 120.511 16.21 119.811 16.21ZM125.709 12.85C125.709 12.178 125.905 11.597 126.297 11.107C126.689 10.603 127.228 10.211 127.914 9.931C128.614 9.651 129.419 9.511 130.329 9.511C130.861 9.511 131.414 9.56 131.988 9.658C132.562 9.742 133.073 9.861 133.521 10.015V9.091C133.521 8.167 133.248 7.432 132.702 6.886C132.156 6.34 131.4 6.067 130.434 6.067C129.86 6.067 129.286 6.179 128.712 6.403C128.138 6.613 127.543 6.928 126.927 7.348L126.381 6.34C127.095 5.85 127.795 5.486 128.481 5.248C129.167 4.996 129.867 4.87 130.581 4.87C131.925 4.87 132.989 5.255 133.773 6.025C134.557 6.795 134.949 7.859 134.949 9.217V14.278C134.949 14.656 135.124 14.852 135.474 14.866V16C135.166 16.042 134.949 16.056 134.823 16.042C134.473 16.028 134.207 15.916 134.025 15.706C133.843 15.496 133.745 15.272 133.731 15.034L133.71 14.236C133.22 14.866 132.583 15.356 131.799 15.706C131.015 16.042 130.217 16.21 129.405 16.21C128.691 16.21 128.054 16.063 127.494 15.769C126.934 15.461 126.493 15.055 126.171 14.551C125.863 14.033 125.709 13.466 125.709 12.85ZM133.038 13.69C133.36 13.312 133.521 12.962 133.521 12.64V11.044C132.555 10.666 131.547 10.477 130.497 10.477C129.475 10.477 128.649 10.68 128.019 11.086C127.389 11.492 127.074 12.045 127.074 12.745C127.074 13.347 127.305 13.893 127.767 14.383C128.243 14.873 128.901 15.118 129.741 15.118C130.427 15.118 131.064 14.985 131.652 14.719C132.254 14.453 132.716 14.11 133.038 13.69ZM143.202 15.475C143.034 15.545 142.726 15.671 142.278 15.853C141.83 16.035 141.312 16.126 140.724 16.126C140.108 16.126 139.569 15.951 139.107 15.601C138.645 15.251 138.414 14.726 138.414 14.026V6.193H136.902V5.059H138.414V1.363H139.842V5.059H142.362V6.193H139.842V13.627C139.87 14.033 140.01 14.334 140.262 14.53C140.528 14.712 140.829 14.803 141.165 14.803C141.557 14.803 141.907 14.74 142.215 14.614C142.537 14.474 142.74 14.376 142.824 14.32L143.202 15.475ZM149.527 16.21C148.477 16.21 147.539 15.951 146.713 15.433C145.887 14.915 145.236 14.222 144.76 13.354C144.284 12.486 144.046 11.534 144.046 10.498C144.046 9.476 144.277 8.538 144.739 7.684C145.215 6.83 145.866 6.151 146.692 5.647C147.518 5.129 148.456 4.87 149.506 4.87C150.584 4.87 151.529 5.129 152.341 5.647C153.153 6.165 153.783 6.851 154.231 7.705C154.693 8.545 154.924 9.469 154.924 10.477C154.924 10.701 154.917 10.89 154.903 11.044H145.537C145.607 11.828 145.831 12.528 146.209 13.144C146.587 13.746 147.07 14.229 147.658 14.593C148.246 14.943 148.89 15.118 149.59 15.118C150.304 15.118 150.976 14.936 151.606 14.572C152.236 14.208 152.684 13.732 152.95 13.144L154.189 13.48C153.965 14.012 153.615 14.488 153.139 14.908C152.677 15.314 152.138 15.636 151.522 15.874C150.906 16.098 150.241 16.21 149.527 16.21ZM145.495 10.015H153.58C153.524 9.231 153.307 8.538 152.929 7.936C152.551 7.32 152.068 6.844 151.48 6.508C150.892 6.158 150.241 5.983 149.527 5.983C148.813 5.983 148.162 6.158 147.574 6.508C146.986 6.844 146.503 7.32 146.125 7.936C145.761 8.538 145.551 9.231 145.495 10.015ZM171.677 16H170.249V9.889C170.249 7.411 169.409 6.172 167.729 6.172C167.183 6.172 166.651 6.312 166.133 6.592C165.615 6.858 165.153 7.229 164.747 7.705C164.355 8.167 164.075 8.699 163.907 9.301V16H162.479V0.67H163.907V7.537C164.341 6.725 164.943 6.081 165.713 5.605C166.497 5.115 167.33 4.87 168.212 4.87C169.052 4.87 169.724 5.073 170.228 5.479C170.732 5.871 171.096 6.424 171.32 7.138C171.558 7.838 171.677 8.657 171.677 9.595V16ZM179.447 16.21C178.397 16.21 177.459 15.951 176.633 15.433C175.807 14.915 175.156 14.222 174.68 13.354C174.204 12.486 173.966 11.534 173.966 10.498C173.966 9.476 174.197 8.538 174.659 7.684C175.135 6.83 175.786 6.151 176.612 5.647C177.438 5.129 178.376 4.87 179.426 4.87C180.504 4.87 181.449 5.129 182.261 5.647C183.073 6.165 183.703 6.851 184.151 7.705C184.613 8.545 184.844 9.469 184.844 10.477C184.844 10.701 184.837 10.89 184.823 11.044H175.457C175.527 11.828 175.751 12.528 176.129 13.144C176.507 13.746 176.99 14.229 177.578 14.593C178.166 14.943 178.81 15.118 179.51 15.118C180.224 15.118 180.896 14.936 181.526 14.572C182.156 14.208 182.604 13.732 182.87 13.144L184.109 13.48C183.885 14.012 183.535 14.488 183.059 14.908C182.597 15.314 182.058 15.636 181.442 15.874C180.826 16.098 180.161 16.21 179.447 16.21ZM175.415 10.015H183.5C183.444 9.231 183.227 8.538 182.849 7.936C182.471 7.32 181.988 6.844 181.4 6.508C180.812 6.158 180.161 5.983 179.447 5.983C178.733 5.983 178.082 6.158 177.494 6.508C176.906 6.844 176.423 7.32 176.045 7.936C175.681 8.538 175.471 9.231 175.415 10.015ZM192.508 6.319C191.556 6.347 190.716 6.613 189.988 7.117C189.274 7.621 188.77 8.314 188.476 9.196V16H187.048V5.059H188.392V7.684C188.77 6.914 189.267 6.291 189.883 5.815C190.513 5.339 191.178 5.073 191.878 5.017C192.018 5.003 192.137 4.996 192.235 4.996C192.333 4.996 192.424 5.003 192.508 5.017V6.319ZM198.807 16.21C197.757 16.21 196.819 15.951 195.993 15.433C195.167 14.915 194.516 14.222 194.04 13.354C193.564 12.486 193.326 11.534 193.326 10.498C193.326 9.476 193.557 8.538 194.019 7.684C194.495 6.83 195.146 6.151 195.972 5.647C196.798 5.129 197.736 4.87 198.786 4.87C199.864 4.87 200.809 5.129 201.621 5.647C202.433 6.165 203.063 6.851 203.511 7.705C203.973 8.545 204.204 9.469 204.204 10.477C204.204 10.701 204.197 10.89 204.183 11.044H194.817C194.887 11.828 195.111 12.528 195.489 13.144C195.867 13.746 196.35 14.229 196.938 14.593C197.526 14.943 198.17 15.118 198.87 15.118C199.584 15.118 200.256 14.936 200.886 14.572C201.516 14.208 201.964 13.732 202.23 13.144L203.469 13.48C203.245 14.012 202.895 14.488 202.419 14.908C201.957 15.314 201.418 15.636 200.802 15.874C200.186 16.098 199.521 16.21 198.807 16.21ZM194.775 10.015H202.86C202.804 9.231 202.587 8.538 202.209 7.936C201.831 7.32 201.348 6.844 200.76 6.508C200.172 6.158 199.521 5.983 198.807 5.983C198.093 5.983 197.442 6.158 196.854 6.508C196.266 6.844 195.783 7.32 195.405 7.936C195.041 8.538 194.831 9.231 194.775 10.015ZM206.197 7.18V5.122H207.415V7.18H206.197ZM206.197 16V13.942H207.415V16H206.197ZM229.221 5.017H231.426L226.806 16H224.832L222.858 11.044L220.884 16H218.91L214.269 5.017H216.474L220.002 13.753L221.556 9.7L219.666 5.038H221.619L222.858 8.461L224.076 5.038H226.029L224.16 9.7L225.714 13.753L229.221 5.017ZM246.652 5.017H248.857L244.237 16H242.263L240.289 11.044L238.315 16H236.341L231.7 5.017H233.905L237.433 13.753L238.987 9.7L237.097 5.038H239.05L240.289 8.461L241.507 5.038H243.46L241.591 9.7L243.145 13.753L246.652 5.017ZM264.084 5.017H266.289L261.669 16H259.695L257.721 11.044L255.747 16H253.773L249.132 5.017H251.337L254.865 13.753L256.419 9.7L254.529 5.038H256.482L257.721 8.461L258.939 5.038H260.892L259.023 9.7L260.577 13.753L264.084 5.017ZM266.221 16V13.312H268.132V16H266.221ZM280.646 16H278.336V9.847C278.336 8.853 278.154 8.111 277.79 7.621C277.426 7.131 276.915 6.886 276.257 6.886C275.837 6.886 275.41 6.998 274.976 7.222C274.556 7.446 274.178 7.754 273.842 8.146C273.506 8.524 273.261 8.965 273.107 9.469V16H270.797V0.67H273.107V7.222C273.527 6.466 274.101 5.878 274.829 5.458C275.557 5.038 276.341 4.828 277.181 4.828C278.091 4.828 278.798 5.038 279.302 5.458C279.806 5.864 280.156 6.41 280.352 7.096C280.548 7.768 280.646 8.503 280.646 9.301V16ZM293.176 16H290.866V9.847C290.866 8.811 290.698 8.062 290.362 7.6C290.04 7.124 289.557 6.886 288.913 6.886C288.465 6.886 288.017 6.998 287.569 7.222C287.135 7.446 286.743 7.754 286.393 8.146C286.043 8.538 285.791 8.979 285.637 9.469V16H283.327V5.017H285.427V7.222C285.847 6.494 286.456 5.913 287.254 5.479C288.052 5.045 288.934 4.828 289.9 4.828C290.768 4.828 291.44 5.038 291.916 5.458C292.392 5.864 292.721 6.403 292.903 7.075C293.085 7.747 293.176 8.489 293.176 9.301V16ZM300.205 16.105C299.211 16.105 298.336 15.846 297.58 15.328C296.838 14.81 296.25 14.131 295.816 13.291C295.396 12.437 295.186 11.513 295.186 10.519C295.186 9.483 295.403 8.531 295.837 7.663C296.271 6.795 296.866 6.109 297.622 5.605C298.392 5.087 299.281 4.828 300.289 4.828C301.171 4.828 301.941 5.038 302.599 5.458C303.271 5.878 303.824 6.424 304.258 7.096V5.017H306.295V15.685C306.295 16.749 306.036 17.652 305.518 18.394C305.014 19.136 304.321 19.703 303.439 20.095C302.557 20.487 301.563 20.683 300.457 20.683C299.239 20.683 298.224 20.473 297.412 20.053C296.614 19.633 295.942 19.059 295.396 18.331L296.698 17.113C297.118 17.701 297.657 18.149 298.315 18.457C298.987 18.765 299.701 18.919 300.457 18.919C301.087 18.919 301.668 18.8 302.2 18.562C302.746 18.338 303.18 17.988 303.502 17.512C303.824 17.036 303.985 16.427 303.985 15.685V14.005C303.593 14.663 303.054 15.181 302.368 15.559C301.682 15.923 300.961 16.105 300.205 16.105ZM300.961 14.236C301.423 14.236 301.864 14.138 302.284 13.942C302.704 13.732 303.061 13.459 303.355 13.123C303.663 12.787 303.873 12.43 303.985 12.052V9.175C303.705 8.475 303.264 7.908 302.662 7.474C302.074 7.026 301.451 6.802 300.793 6.802C300.121 6.802 299.54 6.984 299.05 7.348C298.574 7.712 298.203 8.188 297.937 8.776C297.671 9.35 297.538 9.952 297.538 10.582C297.538 11.254 297.685 11.87 297.979 12.43C298.287 12.976 298.7 13.417 299.218 13.753C299.736 14.075 300.317 14.236 300.961 14.236ZM308.96 16V13.312H310.871V16H308.96ZM319.605 15.433C319.311 15.573 318.905 15.734 318.387 15.916C317.869 16.084 317.316 16.168 316.728 16.168C316 16.168 315.37 15.972 314.838 15.58C314.32 15.188 314.061 14.551 314.061 13.669V6.802H312.612V5.017H314.061V1.405H316.371V5.017H318.765V6.802H316.371V12.934C316.399 13.326 316.518 13.613 316.728 13.795C316.952 13.963 317.225 14.047 317.547 14.047C317.869 14.047 318.177 13.991 318.471 13.879C318.765 13.767 318.982 13.676 319.122 13.606L319.605 15.433ZM326.039 16.21C324.905 16.21 323.911 15.951 323.057 15.433C322.203 14.915 321.538 14.229 321.062 13.375C320.586 12.507 320.348 11.562 320.348 10.54C320.348 9.504 320.586 8.552 321.062 7.684C321.538 6.816 322.203 6.123 323.057 5.605C323.911 5.087 324.912 4.828 326.06 4.828C327.208 4.828 328.202 5.094 329.042 5.626C329.882 6.144 330.526 6.83 330.974 7.684C331.436 8.538 331.667 9.455 331.667 10.435C331.667 10.785 331.646 11.065 331.604 11.275H322.805C322.847 11.919 323.022 12.486 323.33 12.976C323.652 13.452 324.051 13.83 324.527 14.11C325.017 14.376 325.549 14.509 326.123 14.509C326.739 14.509 327.32 14.355 327.866 14.047C328.412 13.739 328.79 13.333 329 12.829L330.974 13.396C330.596 14.222 329.966 14.901 329.084 15.433C328.216 15.951 327.201 16.21 326.039 16.21ZM322.742 9.742H329.378C329.322 9.112 329.14 8.559 328.832 8.083C328.524 7.593 328.125 7.215 327.635 6.949C327.159 6.669 326.627 6.529 326.039 6.529C325.465 6.529 324.933 6.669 324.443 6.949C323.967 7.215 323.575 7.593 323.267 8.083C322.959 8.559 322.784 9.112 322.742 9.742ZM338.528 16.21C337.394 16.21 336.4 15.951 335.546 15.433C334.692 14.901 334.027 14.201 333.551 13.333C333.075 12.465 332.837 11.52 332.837 10.498C332.837 9.476 333.068 8.538 333.53 7.684C334.006 6.816 334.664 6.123 335.504 5.605C336.358 5.087 337.366 4.828 338.528 4.828C339.662 4.828 340.635 5.08 341.447 5.584C342.273 6.074 342.889 6.732 343.295 7.558L341.048 8.272C340.796 7.81 340.439 7.453 339.977 7.201C339.529 6.935 339.032 6.802 338.486 6.802C337.87 6.802 337.31 6.963 336.806 7.285C336.316 7.593 335.924 8.027 335.63 8.587C335.35 9.147 335.21 9.784 335.21 10.498C335.21 11.212 335.357 11.849 335.651 12.409C335.959 12.969 336.358 13.417 336.848 13.753C337.352 14.075 337.905 14.236 338.507 14.236C339.067 14.236 339.599 14.089 340.103 13.795C340.607 13.501 340.943 13.144 341.111 12.724L343.379 13.396C343.015 14.222 342.406 14.901 341.552 15.433C340.698 15.951 339.69 16.21 338.528 16.21ZM355.131 16H352.821V9.847C352.821 8.853 352.639 8.111 352.275 7.621C351.911 7.131 351.4 6.886 350.742 6.886C350.322 6.886 349.895 6.998 349.461 7.222C349.041 7.446 348.663 7.754 348.327 8.146C347.991 8.524 347.746 8.965 347.592 9.469V16H345.282V0.67H347.592V7.222C348.012 6.466 348.586 5.878 349.314 5.458C350.042 5.038 350.826 4.828 351.666 4.828C352.576 4.828 353.283 5.038 353.787 5.458C354.291 5.864 354.641 6.41 354.837 7.096C355.033 7.768 355.131 8.503 355.131 9.301V16ZM369.782 1.09L359.555 16H356.993L367.22 1.09H369.782ZM375.496 18.667V15.328H369.049V13.27L376.231 4.009H377.806V13.228H379.654V15.328H377.806V18.667H375.496ZM371.401 13.228H375.748V7.537L371.401 13.228ZM385.942 19.129C384.878 19.129 383.912 18.884 383.044 18.394C382.176 17.918 381.525 17.267 381.091 16.441L382.477 15.118C382.869 15.706 383.373 16.182 383.989 16.546C384.605 16.91 385.263 17.092 385.963 17.092C386.817 17.092 387.524 16.819 388.084 16.273C388.658 15.741 388.945 15.041 388.945 14.173C388.945 13.333 388.672 12.654 388.126 12.136C387.594 11.618 386.922 11.359 386.11 11.359C385.578 11.359 385.081 11.478 384.619 11.716C384.157 11.954 383.779 12.29 383.485 12.724H381.448L383.149 4.009H390.436V6.13H384.829L384.073 10.204C384.311 9.938 384.633 9.728 385.039 9.574C385.445 9.42 385.907 9.343 386.425 9.343C387.349 9.343 388.182 9.546 388.924 9.952C389.666 10.358 390.247 10.925 390.667 11.653C391.101 12.367 391.318 13.193 391.318 14.131C391.318 15.125 391.08 15.993 390.604 16.735C390.128 17.491 389.484 18.079 388.672 18.499C387.86 18.919 386.95 19.129 385.942 19.129ZM397.509 19.129C396.445 19.129 395.479 18.884 394.611 18.394C393.743 17.918 393.092 17.267 392.658 16.441L394.044 15.118C394.436 15.706 394.94 16.182 395.556 16.546C396.172 16.91 396.83 17.092 397.53 17.092C398.384 17.092 399.091 16.819 399.651 16.273C400.225 15.741 400.512 15.041 400.512 14.173C400.512 13.333 400.239 12.654 399.693 12.136C399.161 11.618 398.489 11.359 397.677 11.359C397.145 11.359 396.648 11.478 396.186 11.716C395.724 11.954 395.346 12.29 395.052 12.724H393.015L394.716 4.009H402.003V6.13H396.396L395.64 10.204C395.878 9.938 396.2 9.728 396.606 9.574C397.012 9.42 397.474 9.343 397.992 9.343C398.916 9.343 399.749 9.546 400.491 9.952C401.233 10.358 401.814 10.925 402.234 11.653C402.668 12.367 402.885 13.193 402.885 14.131C402.885 15.125 402.647 15.993 402.171 16.735C401.695 17.491 401.051 18.079 400.239 18.499C399.427 18.919 398.517 19.129 397.509 19.129ZM415.207 11.695C415.207 12.591 414.962 13.382 414.472 14.068C413.982 14.74 413.331 15.258 412.519 15.622C411.707 15.986 410.818 16.168 409.852 16.168C408.858 16.168 407.955 15.972 407.143 15.58C406.345 15.188 405.708 14.649 405.232 13.963C404.77 13.263 404.539 12.472 404.539 11.59C404.539 11.002 404.665 10.477 404.917 10.015C405.183 9.539 405.512 9.133 405.904 8.797C406.31 8.461 406.716 8.202 407.122 8.02C406.548 7.768 406.058 7.383 405.652 6.865C405.246 6.347 405.043 5.759 405.043 5.101C405.043 4.457 405.183 3.89 405.463 3.4C405.757 2.896 406.142 2.476 406.618 2.14C407.094 1.79 407.612 1.531 408.172 1.363C408.746 1.181 409.313 1.09 409.873 1.09C410.447 1.09 411.014 1.181 411.574 1.363C412.148 1.531 412.673 1.783 413.149 2.119C413.639 2.455 414.024 2.875 414.304 3.379C414.598 3.869 414.745 4.436 414.745 5.08C414.745 5.724 414.535 6.312 414.115 6.844C413.695 7.376 413.198 7.768 412.624 8.02C413.296 8.328 413.891 8.797 414.409 9.427C414.941 10.043 415.207 10.799 415.207 11.695ZM407.374 5.185C407.374 5.619 407.5 5.99 407.752 6.298C408.018 6.606 408.34 6.837 408.718 6.991C409.11 7.145 409.495 7.222 409.873 7.222C410.265 7.222 410.65 7.145 411.028 6.991C411.42 6.823 411.742 6.585 411.994 6.277C412.26 5.969 412.393 5.591 412.393 5.143C412.393 4.527 412.134 4.044 411.616 3.694C411.112 3.33 410.531 3.148 409.873 3.148C409.201 3.148 408.613 3.33 408.109 3.694C407.619 4.058 407.374 4.555 407.374 5.185ZM412.876 11.548C412.876 11.002 412.722 10.54 412.414 10.162C412.12 9.784 411.742 9.497 411.28 9.301C410.818 9.091 410.349 8.986 409.873 8.986C409.355 8.986 408.872 9.091 408.424 9.301C407.976 9.511 407.612 9.812 407.332 10.204C407.052 10.582 406.912 11.03 406.912 11.548C406.912 12.08 407.059 12.535 407.353 12.913C407.647 13.291 408.018 13.585 408.466 13.795C408.928 13.991 409.404 14.089 409.894 14.089C410.398 14.089 410.874 13.984 411.322 13.774C411.784 13.55 412.155 13.249 412.435 12.871C412.729 12.479 412.876 12.038 412.876 11.548ZM423.998 5.878H416.774V3.757H427.652L420.197 18.667H417.572L423.998 5.878ZM433.697 18.667V15.328H427.25V13.27L434.432 4.009H436.007V13.228H437.855V15.328H436.007V18.667H433.697ZM429.602 13.228H433.949V7.537L429.602 13.228ZM444.144 19.129C443.08 19.129 442.114 18.884 441.246 18.394C440.378 17.918 439.727 17.267 439.293 16.441L440.679 15.118C441.071 15.706 441.575 16.182 442.191 16.546C442.807 16.91 443.465 17.092 444.165 17.092C445.019 17.092 445.726 16.819 446.286 16.273C446.86 15.741 447.147 15.041 447.147 14.173C447.147 13.333 446.874 12.654 446.328 12.136C445.796 11.618 445.124 11.359 444.312 11.359C443.78 11.359 443.283 11.478 442.821 11.716C442.359 11.954 441.981 12.29 441.687 12.724H439.65L441.351 4.009H448.638V6.13H443.031L442.275 10.204C442.513 9.938 442.835 9.728 443.241 9.574C443.647 9.42 444.109 9.343 444.627 9.343C445.551 9.343 446.384 9.546 447.126 9.952C447.868 10.358 448.449 10.925 448.869 11.653C449.303 12.367 449.52 13.193 449.52 14.131C449.52 15.125 449.282 15.993 448.806 16.735C448.33 17.491 447.686 18.079 446.874 18.499C446.062 18.919 445.152 19.129 444.144 19.129ZM455.5 16.21C454.576 16.21 453.701 16.056 452.875 15.748C452.049 15.44 451.342 14.992 450.754 14.404L451.615 12.85C452.245 13.41 452.875 13.816 453.505 14.068C454.135 14.32 454.772 14.446 455.416 14.446C456.06 14.446 456.585 14.327 456.991 14.089C457.397 13.837 457.6 13.473 457.6 12.997C457.6 12.661 457.495 12.402 457.285 12.22C457.075 12.038 456.767 11.891 456.361 11.779C455.969 11.667 455.493 11.527 454.933 11.359C454.149 11.121 453.491 10.876 452.959 10.624C452.427 10.358 452.028 10.036 451.762 9.658C451.496 9.28 451.363 8.797 451.363 8.209C451.363 7.145 451.762 6.319 452.56 5.731C453.358 5.129 454.401 4.828 455.689 4.828C456.487 4.828 457.222 4.954 457.894 5.206C458.58 5.444 459.182 5.822 459.7 6.34L458.713 7.873C457.761 7.005 456.711 6.571 455.563 6.571C455.059 6.571 454.59 6.669 454.156 6.865C453.736 7.061 453.526 7.425 453.526 7.957C453.526 8.405 453.715 8.727 454.093 8.923C454.471 9.119 455.031 9.329 455.773 9.553C456.613 9.805 457.334 10.057 457.936 10.309C458.552 10.547 459.021 10.862 459.343 11.254C459.679 11.632 459.847 12.157 459.847 12.829C459.847 13.893 459.448 14.726 458.65 15.328C457.852 15.916 456.802 16.21 455.5 16.21ZM471.758 16H469.448V9.847C469.448 8.853 469.266 8.111 468.902 7.621C468.538 7.131 468.027 6.886 467.369 6.886C466.949 6.886 466.522 6.998 466.088 7.222C465.668 7.446 465.29 7.754 464.954 8.146C464.618 8.524 464.373 8.965 464.219 9.469V16H461.909V0.67H464.219V7.222C464.639 6.466 465.213 5.878 465.941 5.458C466.669 5.038 467.453 4.828 468.293 4.828C469.203 4.828 469.91 5.038 470.414 5.458C470.918 5.864 471.268 6.41 471.464 7.096C471.66 7.768 471.758 8.503 471.758 9.301V16ZM473.747 10.519C473.747 9.469 473.957 8.517 474.377 7.663C474.811 6.795 475.399 6.109 476.141 5.605C476.883 5.087 477.737 4.828 478.703 4.828C479.543 4.828 480.299 5.045 480.971 5.479C481.657 5.913 482.189 6.452 482.567 7.096V0.67H484.877V13.396C484.877 13.662 484.926 13.851 485.024 13.963C485.122 14.075 485.283 14.138 485.507 14.152V16C485.073 16.07 484.737 16.105 484.499 16.105C484.065 16.105 483.694 15.986 483.386 15.748C483.092 15.496 482.938 15.188 482.924 14.824L482.903 14.005C482.483 14.705 481.916 15.251 481.202 15.643C480.488 16.021 479.746 16.21 478.976 16.21C477.968 16.21 477.065 15.951 476.267 15.433C475.483 14.915 474.867 14.229 474.419 13.375C473.971 12.507 473.747 11.555 473.747 10.519ZM482.567 12.052V9.175C482.399 8.727 482.147 8.328 481.811 7.978C481.475 7.614 481.09 7.327 480.656 7.117C480.236 6.907 479.816 6.802 479.396 6.802C478.738 6.802 478.164 6.984 477.674 7.348C477.198 7.698 476.82 8.16 476.54 8.734C476.274 9.308 476.141 9.917 476.141 10.561C476.141 11.233 476.288 11.849 476.582 12.409C476.89 12.969 477.303 13.417 477.821 13.753C478.339 14.075 478.92 14.236 479.564 14.236C479.956 14.236 480.362 14.145 480.782 13.963C481.216 13.767 481.594 13.508 481.916 13.186C482.238 12.85 482.455 12.472 482.567 12.052Z" fill="black"/>
</svg>
